<svg xmlns="http://www.w3.org/2000/svg" xmlns:xlink="http://www.w3.org/1999/xlink" width="242" height="49" viewBox="0 0 242 49">
    <defs>
        <path id="a" d="M0 53.742h241.588V.001H0z"/>
    </defs>
    <g fill="none" fill-rule="evenodd">
        <path fill="#0085C6" d="M42.043 42.712c-4.124 0-7.461-3.437-7.461-7.67 0-4.222 3.337-7.656 7.461-7.656 4.115 0 7.457 3.434 7.457 7.656 0 4.233-3.342 7.67-7.457 7.67"/>
        <path fill="#434041" d="M63.288 36.735c1.403 0 2.49-.234 3.269-.7.773-.467 1.162-1.283 1.162-2.438V11.48h-4.431v25.255zM84.871 19.47a6.282 6.282 0 0 0-2.303-1.235 9.25 9.25 0 0 0-2.597-.372c-1.03 0-1.938.241-2.723.724-.787.478-1.413 1.015-1.88 1.607l-.11-.112c.174-.197.308-.398.41-.612.1-.206.174-.412.223-.609.075-.22.122-.415.148-.588h-4.284v18.461h4.322V26.062c0-1.846.271-3.156.82-3.93.548-.778 1.446-1.164 2.685-1.164 1.146 0 1.973.363 2.484 1.09.511.724.769 2 .769 3.822v8.122c0 .86.366 1.596 1.099 2.198.731.602 1.804.905 3.22.905V25.249c0-1.403-.209-2.573-.626-3.506-.417-.937-.97-1.691-1.657-2.273M103.969 24.2a13.53 13.53 0 0 0-2.972-1.478 50.87 50.87 0 0 1-2.973-1.162c-.912-.397-1.674-.851-2.29-1.367-.614-.522-.92-1.207-.92-2.069 0-1.256.318-2.177.955-2.77.642-.59 1.65-.883 3.028-.883 1.383 0 2.447.194 3.199.59.747.394 1.32.933 1.715 1.624l3.065-1.996a5.995 5.995 0 0 0-1.07-1.33 7.32 7.32 0 0 0-1.608-1.124c-.626-.333-1.364-.598-2.215-.792-.848-.2-1.828-.298-2.934-.298-2.61 0-4.694.59-6.243 1.774-1.55 1.18-2.327 2.916-2.327 5.205 0 1.404.31 2.54.924 3.414.614.875 1.38 1.601 2.29 2.18.908.581 1.904 1.059 2.97 1.441 1.074.38 2.063.78 2.977 1.2.91.42 1.673.916 2.287 1.495.614.581.923 1.336.923 2.27 0 1.184-.34 2.082-1.014 2.698-.678.614-1.79.921-3.344.921-.736 0-1.42-.098-2.049-.295a8.017 8.017 0 0 1-1.642-.703 7.976 7.976 0 0 1-1.2-.83 7.329 7.329 0 0 1-.722-.682l-2.325 2.66c.148.145.413.398.795.755.38.356.893.721 1.53 1.092.64.37 1.415.69 2.33.958.909.27 1.968.408 3.175.408 2.903 0 5.113-.617 6.625-1.85 1.516-1.23 2.273-2.952 2.273-5.166 0-1.477-.31-2.679-.924-3.602a8.092 8.092 0 0 0-2.29-2.287M118.754 33.689c-.495.136-.961.204-1.404.204-.347 0-.628-.117-.85-.352-.22-.234-.333-.61-.333-1.125V21.19h3.325l1.476-2.915h-4.801V14.47c-1.13 0-2.018.251-2.658.755-.64.504-1.057 1.202-1.254 2.086l-.187.963H109.3v2.915h2.658v11.227c0 1.477.394 2.627 1.183 3.455.785.822 1.81 1.235 3.063 1.235a9.2 9.2 0 0 0 2.791-.408c.849-.267 1.554-.626 2.121-1.071l-1.106-2.4a6.98 6.98 0 0 1-1.256.462M133.98 27.984c0 1.108-.044 2.04-.13 2.805-.085.764-.259 1.392-.516 1.884-.26.494-.628.85-1.109 1.07-.48.223-1.113.333-1.903.333-.712 0-1.298-.121-1.75-.37a2.565 2.565 0 0 1-1.073-1.106c-.26-.492-.432-1.127-.516-1.903a24.788 24.788 0 0 1-.129-2.713v-.959c0-1.085.035-2.02.108-2.807.075-.788.237-1.43.483-1.922a2.373 2.373 0 0 1 1.052-1.09c.454-.232 1.064-.351 1.825-.351.79 0 1.423.12 1.903.351.48.237.849.598 1.109 1.09.257.492.43 1.127.515 1.905.087.774.131 1.713.131 2.824v.959zm2.032-8.088a6.592 6.592 0 0 0-2.568-1.549 9.779 9.779 0 0 0-3.084-.482c-1.06 0-2.067.161-3.028.482a6.413 6.413 0 0 0-2.528 1.55c-.727.714-1.306 1.654-1.737 2.826-.429 1.169-.644 2.589-.644 4.262v1.036c0 1.697.215 3.126.644 4.284.431 1.155 1.017 2.09 1.755 2.807a6.498 6.498 0 0 0 2.529 1.53 9.6 9.6 0 0 0 2.971.465c1.083 0 2.114-.157 3.087-.464a6.502 6.502 0 0 0 2.566-1.53c.738-.718 1.328-1.653 1.769-2.808.445-1.158.668-2.587.668-4.284v-1.036c0-1.696-.218-3.126-.647-4.284-.431-1.155-1.017-2.09-1.753-2.805zM150.093 17.864c-1.109 0-2.05.255-2.826.757-.774.503-1.385 1.042-1.833 1.61l-.148-.113c.321-.42.532-.769.63-1.052.101-.281.153-.55.153-.792h-4.211V36.77h4.324V26.36c0-3.546 1.19-5.318 3.578-5.318.494 0 .912.08 1.256.24a5.2 5.2 0 0 1 .996.611l1.441-3.363c-.588-.27-1.118-.447-1.589-.534-.466-.087-1.059-.131-1.771-.131M160.089 21.917c.651-.755 1.6-1.135 2.847-1.135.637 0 1.176.092 1.617.275.443.182.797.428 1.066.73.267.305.467.662.588 1.065.122.4.183.825.183 1.26 0 .247-.054.46-.164.643-.11.182-.325.276-.642.276h-6.468c0-1.32.326-2.357.973-3.114m8.242 11.403a10.73 10.73 0 0 1-1.203.349c-.417.098-.824.18-1.218.239a6.164 6.164 0 0 1-.996.094c-1.083 0-1.994-.11-2.733-.328-.738-.22-1.335-.577-1.792-1.067-.455-.487-.788-1.124-.996-1.91-.209-.782-.338-1.736-.387-2.863h9.2c.739 0 1.33-.197 1.772-.593.44-.39.659-.968.659-1.732 0-1.303-.202-2.432-.607-3.377-.406-.946-.961-1.743-1.664-2.383a6.78 6.78 0 0 0-2.435-1.422 9.185 9.185 0 0 0-2.936-.462 9.984 9.984 0 0 0-3.084.483 6.875 6.875 0 0 0-2.658 1.567c-.778.724-1.399 1.667-1.865 2.827-.471 1.155-.703 2.582-.703 4.283 0 2.067.267 3.754.801 5.057.535 1.308 1.217 2.332 2.048 3.084.832.75 1.765 1.263 2.8 1.533a11.98 11.98 0 0 0 3.029.405c.862 0 1.666-.056 2.42-.168.75-.113 1.42-.249 2.011-.413.593-.16 1.101-.333 1.533-.52.43-.187.759-.359.977-.504l-1.034-2.64c-.246.17-.56.325-.94.46"/>
        <path fill="#0085C6" d="M180.495 32.782c.422-1.488.865-2.962 1.336-4.424.471-1.462.928-2.934 1.378-4.42l4.047-12.86h2.714l-8.547 25.864h-2.113l-8.554-25.864h2.676c.101.346.263.86.485 1.542.225.682.464 1.438.724 2.268.26.83.54 1.708.837 2.639.295.93.579 1.809.858 2.638.27.832.508 1.585.722 2.269.213.682.377 1.193.501 1.537l2.789 8.849.147-.038z"/>
        <mask id="b" fill="#fff">
            <use xlink:href="#a"/>
        </mask>
        <path fill="#0085C6" d="M192.384 36.942h2.343V18.51h-2.343v18.433zm-.073-23.45h2.453v-2.414h-2.453v2.414zM211.675 26.427c-.054-2.008-.515-3.498-1.394-4.478-.879-.98-2.1-1.47-3.658-1.47-1.514 0-2.737.51-3.665 1.524-.928 1.015-1.442 2.493-1.542 4.424h10.26zm-10.26 1.931c-.023.919.062 1.784.26 2.606.2.816.533 1.528 1.004 2.133a5.012 5.012 0 0 0 1.802 1.448c.733.36 1.603.539 2.62.539.668 0 1.401-.138 2.19-.427a7.296 7.296 0 0 0 2.122-1.167l1.448 1.594a7.902 7.902 0 0 1-2.676 1.582 9.168 9.168 0 0 1-3.007.501 10.86 10.86 0 0 1-2.845-.389 6.54 6.54 0 0 1-2.601-1.413c-.78-.68-1.418-1.629-1.912-2.84-.497-1.216-.748-2.793-.748-4.724 0-1.833.24-3.359.71-4.568.469-1.218 1.071-2.189 1.805-2.92.726-.729 1.544-1.246 2.45-1.542a8.436 8.436 0 0 1 2.656-.445c1.115 0 2.118.197 3.007.593a6.784 6.784 0 0 1 2.308 1.673c.644.717 1.139 1.589 1.488 2.599.344 1.017.52 2.133.52 3.346v1.821h-12.6zM234.678 33.6l1.486-5.24 2.824-9.815h2.598c-.17.523-.407 1.259-.703 2.215-.297.954-.64 2.032-1.021 3.234-.385 1.2-.785 2.451-1.21 3.752a328.279 328.279 0 0 0-1.19 3.754c-.368 1.2-.71 2.287-1.017 3.25a96.423 96.423 0 0 0-.691 2.194h-2.302c-.126-.394-.328-1.03-.614-1.896-.288-.867-.583-1.777-.892-2.73-.31-.954-.603-1.863-.875-2.733a58.511 58.511 0 0 0-.632-1.93c-.319-.94-.624-1.88-.91-2.808-.283-.93-.59-1.873-.909-2.843-.297.942-.597 1.89-.893 2.843-.297.956-.597 1.891-.892 2.807a47.49 47.49 0 0 0-.633 1.894c-.27.87-.56 1.785-.872 2.751-.31.963-.6 1.882-.872 2.749a51.767 51.767 0 0 1-.63 1.896h-2.306c-.15-.497-.377-1.228-.689-2.194-.31-.963-.65-2.05-1.02-3.25a329.74 329.74 0 0 0-1.192-3.754c-.42-1.3-.816-2.552-1.188-3.752-.373-1.202-.713-2.28-1.022-3.234a82.965 82.965 0 0 1-.689-2.215h2.566c.124.427.321 1.102.593 2.027.274.93.56 1.903.855 2.923.296 1.014.586 1.982.856 2.915.274.928.468 1.603.593 2.025l1.488 5.017h.112c.274-.816.54-1.65.8-2.489.26-.846.515-1.661.76-2.453.148-.427.373-1.1.671-2.025.295-.93.614-1.917.944-2.957.338-1.041.652-2.025.954-2.956.293-.925.504-1.6.628-2.027h2.229c.15.427.368 1.102.651 2.027.284.93.596 1.903.926 2.923.337 1.014.647 1.982.933 2.915.283.928.499 1.603.649 2.025l1.6 5.165h.148z" mask="url(#b)"/>
        <path fill="#434041" d="M28.42 33.874c0-6.554 5.315-11.87 11.872-11.87a11.82 11.82 0 0 1 7.935 3.057c.014-.312.023-.62.023-.935C48.25 10.794 37.451 0 24.127 0 10.804 0 0 10.794 0 24.126c0 13.317 10.803 24.125 24.126 24.125 4.396 0 8.518-1.183 12.068-3.243-4.534-1.669-7.775-6.016-7.775-11.134" mask="url(#b)"/>
    </g>
</svg>
