<svg xmlns="http://www.w3.org/2000/svg" xmlns:xlink="http://www.w3.org/1999/xlink" id="Layer_1" x="0px" y="0px" width="730.678px" height="196px" viewBox="0 0 730.678 196" xml:space="preserve">
<g>
	<g>
		<path fill="#003670" d="M599.232,167.107c0,5.379-4.221,9.6-9.715,9.6c-5.436,0-9.772-4.221-9.772-9.6    c0-5.261,4.336-9.483,9.772-9.483C595.011,157.624,599.232,161.847,599.232,167.107z M582.174,167.107    c0,4.222,3.123,7.575,7.401,7.575c4.163,0,7.228-3.354,7.228-7.517c0-4.223-3.065-7.633-7.286-7.633    C585.296,159.533,582.174,162.943,582.174,167.107z M588.014,172.081h-2.198v-9.483c0.868-0.174,2.082-0.29,3.643-0.29    c1.793,0,2.603,0.29,3.296,0.694c0.521,0.404,0.925,1.157,0.925,2.082c0,1.041-0.81,1.851-1.966,2.198v0.114    c0.925,0.347,1.446,1.041,1.734,2.313c0.289,1.446,0.463,2.023,0.694,2.371h-2.371c-0.289-0.348-0.462-1.215-0.752-2.312    c-0.173-1.042-0.751-1.505-1.966-1.505h-1.041V172.081z M588.071,166.703h1.042c1.214,0,2.197-0.404,2.197-1.388    c0-0.866-0.636-1.446-2.024-1.446c-0.578,0-0.983,0.059-1.215,0.117V166.703z"></path>
	</g>
	<g>
		<g>
			<path fill="#003670" d="M712.246,55.23c-3.609-18.241-22.219-36.671-40.951-40.468c-27.297-5.534-51.996,9.144-61.211,31.465     c-5.529-1.71-11.615-2.201-17.94-1.113c-14.579,2.508-26.332,13.444-29.436,27.496c-4.728,21.409,10.643,41.756,31.288,44.435     l2.007,21.432l26.185-20.998l40.894-0.109C694.503,115.498,718.596,87.317,712.246,55.23z"></path>
		</g>
		<g>
			<path fill="#003670" d="M28.314,155.554v-32.245h-2.473c-2.706,0-4.786-0.657-6.244-1.97c-1.458-1.312-2.187-3.16-2.187-5.537     c0-2.381,0.729-4.227,2.187-5.539c1.458-1.312,3.538-1.969,6.244-1.969h2.979v-7.139c0-3.363,0.855-5.96,2.567-7.785     c1.711-1.825,4.13-2.738,7.259-2.738c3.169,0,5.599,0.903,7.29,2.705c1.69,1.808,2.535,4.414,2.535,7.818v7.139h5.325     c2.704,0,4.786,0.656,6.244,1.969c1.458,1.312,2.188,3.158,2.188,5.539c0,2.377-0.729,4.225-2.188,5.537     c-1.458,1.312-3.54,1.97-6.244,1.97h-5.072v29.229c0,2.669,0.433,4.544,1.3,5.631c0.865,1.088,2.377,1.632,4.532,1.632     c0.591,0,1.364-0.053,2.314-0.155c0.951-0.101,1.722-0.151,2.314-0.151c1.606,0,2.905,0.501,3.898,1.506     c0.994,1.007,1.491,2.369,1.491,4.092c0,2.873-1.29,5.15-3.867,6.833c-2.79,1.887-6.742,2.83-11.855,2.83     c-7.058,0-12.245-1.538-15.563-4.617C29.971,167.061,28.314,162.198,28.314,155.554z"></path>
			<path fill="#003670" d="M68.127,144.047v-7.264c0-9.271,2.905-16.737,8.715-22.399c5.811-5.66,13.492-8.489,23.044-8.489     c8.916,0,16.249,2.697,21.997,8.091c5.747,5.395,8.621,12.193,8.621,20.398c0,3.734-0.761,6.371-2.282,7.907     c-1.521,1.539-4.1,2.308-7.733,2.308H88.855V147c0.085,3.938,1.406,7.087,3.963,9.447c2.556,2.357,6.074,3.536,10.554,3.536     c4.479,0,8.072-0.964,10.776-2.891c0.254-0.166,0.708-0.453,1.364-0.863c0.654-0.41,1.088-0.676,1.299-0.8     c0.211-0.123,0.571-0.308,1.078-0.554c0.507-0.246,0.909-0.41,1.205-0.492c0.295-0.082,0.686-0.164,1.173-0.245     c0.485-0.083,0.981-0.123,1.489-0.123c2.07,0,3.729,0.604,4.976,1.814c1.246,1.21,1.87,2.861,1.87,4.954     c0,3.487-2.029,6.46-6.085,8.924c-4.945,3.404-11.813,5.106-20.603,5.106c-10.481,0-18.732-2.728-24.755-8.185     C71.138,161.177,68.127,153.645,68.127,144.047z M88.855,133.276h22.442v-0.186c0-3.771-0.995-6.789-2.98-9.044     c-1.986-2.255-4.649-3.384-7.987-3.384c-3.549,0-6.35,1.137-8.4,3.413c-2.05,2.277-3.075,5.284-3.075,9.015V133.276z"></path>
			<path fill="#003670" d="M176.53,165.154c-1.606,2.788-3.974,4.953-7.1,6.49c-3.129,1.539-6.699,2.31-10.713,2.31     c-6.635,0-11.992-1.828-16.07-5.479c-4.08-3.649-6.118-8.45-6.118-14.398c0-6.111,2.229-10.936,6.688-14.462     c4.457-3.527,10.596-5.31,18.415-5.354h14.961v-4.737c0-2.749-0.889-4.852-2.663-6.307c-1.776-1.455-4.29-2.186-7.544-2.186     c-3.635,0-7.543,1.457-11.727,4.37c-2.198,1.352-4.65,2.029-7.354,2.029c-2.156,0-3.867-0.625-5.135-1.876     c-1.268-1.251-1.901-2.842-1.901-4.77c0-4.472,3.021-8.101,9.064-10.893c4.86-2.257,10.988-3.383,18.384-3.383     c9.296,0,16.491,2.018,21.585,6.06c5.092,4.043,7.639,9.773,7.639,17.2v33.599c0,3.364-0.856,5.948-2.568,7.755     c-1.711,1.805-4.152,2.706-7.321,2.706c-2.621,0-4.767-0.646-6.434-1.938c-1.67-1.291-2.716-3.106-3.138-5.446v-1.29H176.53z      M159.129,147.216c-1.712,1.333-2.568,3.148-2.568,5.445c0,2.298,0.877,4.175,2.631,5.63c1.752,1.456,4.004,2.185,6.751,2.185     c3.001,0,5.526-0.85,7.577-2.553c2.048-1.702,3.074-3.805,3.074-6.307v-6.4h-10.397     C163.196,145.216,160.84,145.884,159.129,147.216z"></path>
			<path fill="#003670" d="M308.389,162.998c0,3.53-0.878,6.216-2.631,8.064c-1.754,1.844-4.279,2.767-7.575,2.767     c-3.296,0-5.812-0.923-7.543-2.767c-1.733-1.849-2.6-4.534-2.6-8.064v-29.167c0-3.61-0.867-6.409-2.598-8.4     c-1.734-1.99-4.163-2.985-7.291-2.985c-3.127,0-5.62,1.077-7.48,3.231c-1.86,2.153-2.79,5.057-2.79,8.707v28.614     c0,3.53-0.823,6.216-2.472,8.064c-1.647,1.844-4.057,2.767-7.226,2.767c-3.212,0-5.641-0.923-7.29-2.767     c-1.649-1.849-2.473-4.534-2.473-8.064v-29.043c0-3.61-0.888-6.432-2.663-8.463c-1.775-2.03-4.226-3.047-7.354-3.047     c-3.128,0-5.599,1.067-7.417,3.201s-2.726,5.046-2.726,8.737v28.614c0,3.53-0.867,6.216-2.599,8.064     c-1.734,1.844-4.248,2.767-7.544,2.767c-3.295,0-5.821-0.923-7.574-2.767c-1.754-1.849-2.631-4.534-2.631-8.064v-45.536     c0-3.239,0.887-5.804,2.663-7.692c1.774-1.886,4.205-2.829,7.289-2.829c2.917,0,5.24,0.871,6.974,2.613     c1.733,1.745,2.683,4.175,2.853,7.295v1.844h1.014c1.056-3.692,3.266-6.646,6.624-8.862c3.361-2.214,7.344-3.32,11.95-3.32     c4.776,0,8.781,1.098,12.014,3.291c3.233,2.194,5.397,5.241,6.497,9.138h0.951c1.31-3.772,3.773-6.79,7.386-9.046     c3.613-2.257,7.871-3.383,12.773-3.383c6.678,0,11.929,1.874,15.753,5.629c3.825,3.755,5.737,8.913,5.737,15.478V162.998z"></path>
			<path fill="#003670" d="M317.71,143.798v-7.814c0-9.065,2.81-16.346,8.431-21.844c5.62-5.498,13.46-8.245,23.518-8.245     c8.072,0,14.728,1.762,19.97,5.29c2.112,1.396,3.792,2.996,5.04,4.8c1.245,1.807,1.87,3.673,1.87,5.6     c0,2.214-0.739,4.062-2.218,5.54c-1.481,1.475-3.381,2.214-5.706,2.214c-1.057,0-2.092-0.204-3.107-0.614     c-1.013-0.41-1.742-0.779-2.186-1.107c-0.443-0.328-1.151-0.883-2.124-1.662c-2.875-2.87-6.275-4.31-10.206-4.31     c-4.058,0-7.122,1.377-9.192,4.126c-2.072,2.749-3.106,6.503-3.106,11.259v5.784c0,10.831,4.162,16.248,12.488,16.248     c3.972,0,7.564-1.517,10.777-4.553c0.041-0.043,0.242-0.207,0.602-0.493c0.358-0.286,0.591-0.464,0.697-0.524     c0.105-0.061,0.327-0.215,0.667-0.461c0.337-0.246,0.58-0.41,0.728-0.493c0.148-0.08,0.38-0.214,0.697-0.399     s0.603-0.307,0.855-0.368c0.254-0.062,0.54-0.133,0.856-0.218c0.318-0.078,0.645-0.14,0.983-0.184     c0.337-0.041,0.697-0.061,1.077-0.061c2.323,0,4.173,0.678,5.547,2.029c1.373,1.355,2.06,3.182,2.06,5.478     c0,2.052-0.719,4.072-2.155,6.062c-1.438,1.991-3.381,3.723-5.833,5.2c-5.198,3.159-11.559,4.738-19.082,4.738     c-9.974,0-17.792-2.709-23.454-8.124C320.541,161.278,317.71,153.645,317.71,143.798z"></path>
			<path fill="#003670" d="M416.479,105.895c9.847,0,17.728,2.788,23.645,8.368c5.917,5.579,8.875,13.128,8.875,22.646v6.399     c0,9.889-2.948,17.609-8.843,23.168c-5.895,5.562-13.788,8.339-23.677,8.339c-9.932,0-17.846-2.771-23.741-8.308     c-5.896-5.538-8.844-13.25-8.844-23.138v-6.34c0-9.599,2.958-17.188,8.875-22.767     C398.686,108.683,406.589,105.895,416.479,105.895z M424.941,124.938c-2.008-2.85-4.829-4.274-8.463-4.274     c-3.636,0-6.478,1.425-8.526,4.274c-2.05,2.854-3.075,6.843-3.075,11.971v6.829c0,5.129,1.025,9.131,3.075,12     c2.049,2.873,4.891,4.308,8.526,4.308c3.634,0,6.455-1.425,8.463-4.276c2.006-2.852,3.011-6.86,3.011-12.031v-6.829     C427.952,131.78,426.948,127.791,424.941,124.938z"></path>
			<path fill="#003670" d="M478.352,162.998c0,3.446-0.909,6.114-2.726,8.001c-1.817,1.887-4.373,2.83-7.67,2.83     c-3.296,0-5.78-0.932-7.448-2.799c-1.67-1.866-2.504-4.544-2.504-8.032v-45.229c0-3.485,0.855-6.163,2.567-8.03     c1.712-1.866,4.194-2.798,7.449-2.798c6,0,9.233,3.055,9.699,9.169v0.923h0.951c1.141-3.406,2.884-6.012,5.23-7.814     c2.345-1.806,5.146-2.708,8.398-2.708c2.79,0,4.986,0.737,6.593,2.214c1.691,1.518,2.537,3.653,2.537,6.399     c0,2.668-0.824,4.678-2.473,6.032c-1.521,1.23-3.825,1.907-6.911,2.03c-9.128,0.287-13.692,5.148-13.692,14.583V162.998z"></path>
			<path fill="#003670" d="M504.028,144.047v-7.264c0-9.271,2.905-16.737,8.717-22.399c5.809-5.66,13.491-8.489,23.042-8.489     c8.917,0,16.25,2.697,21.998,8.091c5.747,5.395,8.622,12.193,8.622,20.398c0,3.734-0.761,6.371-2.284,7.907     c-1.521,1.539-4.099,2.308-7.734,2.308h-31.632V147c0.083,3.938,1.405,7.087,3.962,9.447c2.556,2.357,6.075,3.536,10.555,3.536     c4.479,0,8.072-0.964,10.776-2.891c0.254-0.166,0.708-0.453,1.364-0.863c0.654-0.41,1.088-0.676,1.299-0.8     c0.212-0.123,0.571-0.308,1.078-0.554s0.908-0.41,1.204-0.492c0.295-0.082,0.688-0.164,1.173-0.245     c0.485-0.083,0.983-0.123,1.489-0.123c2.071,0,3.729,0.604,4.978,1.814c1.246,1.21,1.869,2.861,1.869,4.954     c0,3.487-2.028,6.46-6.086,8.924c-4.945,3.404-11.813,5.106-20.602,5.106c-10.482,0-18.732-2.728-24.755-8.185     C507.039,161.177,504.028,153.645,504.028,144.047z M524.758,133.276h22.44v-0.186c0-3.771-0.992-6.789-2.979-9.044     s-4.648-3.384-7.986-3.384c-3.551,0-6.351,1.137-8.4,3.413c-2.051,2.277-3.075,5.284-3.075,9.015V133.276z"></path>
		</g>
	</g>
</g>
</svg>